<svg width="20" height="20" viewBox="0 0 20 20" fill="none" xmlns="http://www.w3.org/2000/svg">
<path d="M4.04758 1.66667C2.73433 1.66667 1.66663 2.73438 1.66663 4.04762V15.9524C1.66663 17.2656 2.73433 18.3333 4.04758 18.3333H15.9523C17.2656 18.3333 18.3333 17.2656 18.3333 15.9524V4.04762C18.3333 2.73438 17.2656 1.66667 15.9523 1.66667H4.04758ZM5.23805 5.53572C5.23805 5.04092 5.63612 4.64286 6.13091 4.64286C11.2276 4.64286 15.3571 8.77232 15.3571 13.8691C15.3571 14.3638 14.959 14.7619 14.4642 14.7619C13.9695 14.7619 13.5714 14.3638 13.5714 13.8691C13.5714 9.75819 10.2418 6.42857 6.13091 6.42857C5.63612 6.42857 5.23805 6.03051 5.23805 5.53572ZM5.23805 9.10714C5.23805 8.61235 5.63612 8.21429 6.13091 8.21429C9.25219 8.21429 11.7857 10.7478 11.7857 13.8691C11.7857 14.3638 11.3876 14.7619 10.8928 14.7619C10.398 14.7619 9.99996 14.3638 9.99996 13.8691C9.99996 11.7336 8.26633 10 6.13091 10C5.63612 10 5.23805 9.60194 5.23805 9.10714ZM7.61901 13.5714C7.61901 14.2299 7.08701 14.7619 6.42853 14.7619C5.77005 14.7619 5.23805 14.2299 5.23805 13.5714C5.23805 12.9129 5.77005 12.381 6.42853 12.381C7.08701 12.381 7.61901 12.9129 7.61901 13.5714Z" fill="#919EAB"/>
</svg>
